<?xml version="1.0" encoding="UTF-8" standalone="no"?>
<!-- Created with Inkscape (http://www.inkscape.org/) -->

<svg
   xmlns:dc="http://purl.org/dc/elements/1.1/"
   xmlns:cc="http://creativecommons.org/ns#"
   xmlns:rdf="http://www.w3.org/1999/02/22-rdf-syntax-ns#"
   xmlns:svg="http://www.w3.org/2000/svg"
   xmlns="http://www.w3.org/2000/svg"
   xmlns:xlink="http://www.w3.org/1999/xlink"
   xmlns:sodipodi="http://sodipodi.sourceforge.net/DTD/sodipodi-0.dtd"
   xmlns:inkscape="http://www.inkscape.org/namespaces/inkscape"
   width="144"
   height="144"
   viewBox="0 0 38.1 38.100001"
   version="1.1"
   id="svg8"
   inkscape:version="0.92.4 5da689c313, 2019-01-14"
   sodipodi:docname="logo.svg">
  <defs
     id="defs2">
    <linearGradient
       inkscape:collect="always"
       xlink:href="#linearGradient886"
       id="linearGradient888"
       x1="149.67857"
       y1="175.29167"
       x2="83.154762"
       y2="95.160713"
       gradientUnits="userSpaceOnUse"
       gradientTransform="matrix(0.14572683,0,0,0.1669691,-8.3443908,169.83673)" />
    <linearGradient
       inkscape:collect="always"
       id="linearGradient886">
      <stop
         style="stop-color:#0066ff;stop-opacity:1"
         offset="0"
         id="stop882" />
      <stop
         style="stop-color:#80b3ff;stop-opacity:1"
         offset="1"
         id="stop884" />
    </linearGradient>
  </defs>
  <sodipodi:namedview
     id="base"
     pagecolor="#ffffff"
     bordercolor="#666666"
     borderopacity="1.0"
     inkscape:pageopacity="0.0"
     inkscape:pageshadow="2"
     inkscape:zoom="5.7847222"
     inkscape:cx="35.103241"
     inkscape:cy="72"
     inkscape:document-units="mm"
     inkscape:current-layer="layer1"
     showgrid="false"
     inkscape:snap-global="false"
     fit-margin-top="0"
     fit-margin-left="0"
     fit-margin-right="0"
     fit-margin-bottom="0"
     units="px"
     inkscape:window-width="1887"
     inkscape:window-height="1054"
     inkscape:window-x="33"
     inkscape:window-y="0"
     inkscape:window-maximized="1" />
  <metadata
     id="metadata5">
    <rdf:RDF>
      <cc:Work
         rdf:about="">
        <dc:format>image/svg+xml</dc:format>
        <dc:type
           rdf:resource="http://purl.org/dc/dcmitype/StillImage" />
        <dc:title />
      </cc:Work>
    </rdf:RDF>
  </metadata>
  <g
     inkscape:label="Ebene 1"
     inkscape:groupmode="layer"
     id="layer1"
     transform="translate(12.165887,-172.03606)">
    <path
       style="opacity:1;fill:url(#linearGradient888);fill-opacity:1;stroke:#0096ff;stroke-width:0.49369812;stroke-miterlimit:4;stroke-dasharray:none;stroke-dashoffset:0;stroke-opacity:0.63756612"
       d="M 6.4725055,181.81253 A 12.283121,11.422976 0 0 0 -5.8104172,193.2358 12.283121,11.422976 0 0 0 6.4725055,204.65855 12.283121,11.422976 0 0 0 18.755427,193.2358 12.283121,11.422976 0 0 0 6.4725055,181.81253 Z m 4.3919835,4.18632 a 3.5878527,2.7018808 0 0 1 3.587788,2.70185 3.5878527,2.7018808 0 0 1 -3.587788,2.70183 3.5878527,2.7018808 0 0 1 -3.5877882,-2.70183 3.5878527,2.7018808 0 0 1 3.5877882,-2.70185 z m -8.9078102,0.98277 a 2.9692574,2.0878171 0 0 1 2.969096,2.08749 2.9692574,2.0878171 0 0 1 -2.969096,2.08799 2.9692574,2.0878171 0 0 1 -2.9690957,-2.08799 2.9692574,2.0878171 0 0 1 2.9690957,-2.08749 z m 13.3614542,5.89507 -7.6704258,7.61414 -6.0620348,-4.78984 5.9846981,0.97347 z"
       id="path880"
       inkscape:connector-curvature="0" />
    <path
       style="opacity:1;fill:#917c6f;fill-opacity:1;stroke:#000000;stroke-width:1.81211412;stroke-miterlimit:4;stroke-dasharray:none;stroke-dashoffset:0;stroke-opacity:1"
       d="M 90.675781 14.638672 L 63.46875 15.058594 L 32.246094 25.138672 L 16.189453 42.779297 L 16.189453 62.767578 A 15.834192 19.529806 0 0 0 2.8085938 82.048828 A 15.834192 19.529806 0 0 0 18.642578 101.57812 A 15.834192 19.529806 0 0 0 26.820312 98.742188 A 48.736372 43.065264 0 0 1 21.880859 79.927734 A 48.736372 43.065264 0 0 1 26.257812 62.1875 L 26.892578 47.818359 L 40.720703 33.119141 L 78.632812 24.298828 L 102.27344 33.539062 L 112.53125 40.677734 L 113.73438 59.904297 A 48.736372 43.065264 0 0 1 119.35352 79.927734 A 48.736372 43.065264 0 0 1 114.61328 98.330078 A 15.834192 19.529806 0 0 0 121.89844 100.52734 A 15.834192 19.529806 0 0 0 137.73242 80.998047 A 15.834192 19.529806 0 0 0 125.625 62.041016 L 124.57422 37.318359 L 109.85547 23.458984 L 90.675781 14.638672 z "
       transform="matrix(0.26458333,0,0,0.26458333,-12.165887,172.03606)"
       id="path914" />
    <rect
       style="opacity:1;fill:#ececec;fill-opacity:1;stroke:#000000;stroke-width:0.51325107;stroke-miterlimit:4;stroke-dasharray:none;stroke-dashoffset:0;stroke-opacity:1"
       id="rect934"
       width="2.0799603"
       height="3.3163381"
       x="6.8240871"
       y="175.55777"
       ry="0.060170345" />
    <rect
       style="opacity:1;fill:#ececec;fill-opacity:1;stroke:#000000;stroke-width:0.5132525;stroke-miterlimit:4;stroke-dasharray:none;stroke-dashoffset:0;stroke-opacity:1"
       id="rect936"
       width="4.286459"
       height="1.5952044"
       x="84.328941"
       y="159.00166"
       ry="0.060111899"
       transform="matrix(0.8648213,0.50207979,-0.49916203,0.86650866,0,0)" />
    <rect
       style="opacity:1;fill:#ececec;fill-opacity:1;stroke:#000000;stroke-width:0.54841059;stroke-miterlimit:4;stroke-dasharray:none;stroke-dashoffset:0;stroke-opacity:1"
       id="rect936-5"
       width="4.5800838"
       height="1.7044768"
       x="72.422867"
       y="165.54805"
       ry="0.0642296"
       transform="matrix(-0.8648213,0.50207979,0.49916204,0.86650866,0,0)" />
    <path
       style="fill:#f76300;fill-opacity:0.60052907;stroke:#000000;stroke-width:0.34299999;stroke-linecap:butt;stroke-linejoin:miter;stroke-miterlimit:4;stroke-dasharray:none;stroke-opacity:1;opacity:1"
       d="m 1.6148822,195.64594 5.918568,0.97338 7.6623508,-3.79841 -7.5857388,7.6153 z"
       id="path890-3"
       inkscape:connector-curvature="0"
       sodipodi:nodetypes="ccccc" />
    <path
       style="fill:#ffffff;stroke:#000000;stroke-width:0.26458332px;stroke-linecap:butt;stroke-linejoin:miter;stroke-opacity:1"
       d="m 4.4828524,196.27736 0.182953,0.77755 0.8232896,0.18295 0.2286915,-0.77755 0.6403361,0.18295 0.2744298,1.1892 h 1.0519808 l 0.5488595,-1.50937 -0.8232893,0.45739 z"
       id="path953"
       inkscape:connector-curvature="0" />
    <ellipse
       style="opacity:1;fill:#0000ad;fill-opacity:0.63756615;stroke:none;stroke-width:0.51325107;stroke-miterlimit:4;stroke-dasharray:none;stroke-dashoffset:0;stroke-opacity:1"
       id="path892-6"
       cx="1.981934"
       cy="189.01326"
       rx="2.936415"
       ry="2.0880647" />
    <ellipse
       style="opacity:1;fill:#0000ad;fill-opacity:0.63756615;stroke:none;stroke-width:0.6418153;stroke-miterlimit:4;stroke-dasharray:none;stroke-dashoffset:0;stroke-opacity:1"
       id="path892-3-7"
       cx="10.791178"
       cy="188.64478"
       rx="3.5481677"
       ry="2.7022014" />
    <ellipse
       style="opacity:1;fill:#ffffff;fill-opacity:1;stroke:none;stroke-width:0.51325107;stroke-miterlimit:4;stroke-dasharray:none;stroke-dashoffset:0;stroke-opacity:1"
       id="path894"
       cx="1.6241865"
       cy="189.25301"
       rx="0.9176296"
       ry="0.92120492" />
    <ellipse
       style="opacity:1;fill:#ffffff;fill-opacity:1;stroke:none;stroke-width:0.6418153;stroke-miterlimit:4;stroke-dasharray:none;stroke-dashoffset:0;stroke-opacity:1"
       id="path894-6"
       cx="10.344217"
       cy="188.93872"
       rx="1.1088024"
       ry="1.1921476" />
  </g>
</svg>
